<?xml version="1.0" encoding="UTF-8"?><svg id="a" xmlns="http://www.w3.org/2000/svg" viewBox="0 0 90 40"><g id="b"><g id="c"><path d="M19.49,13.79s0,0,0,0c0,0,0,0,.02,0,.11.06.22.12.32.18h0s.05.03.07.04c.09.05.18.1.27.14.02,0,.05.03.06.04,0,0,0,0,.02,0,.02,0,.03.02.05.03.11.05.21.12.31.17.03.02.05.03.07.05.09.05.18.1.27.15,0,0,0,0,.02,0s.02,0,.02,0c.03.02.05.03.07.05h0c.1.05.19.11.29.16.03.02.05.03.07.05h.02c.1.05.19.11.29.16.03.02.05.03.07.05.1.05.2.12.3.17.02,0,.04.03.06.04.1.05.19.11.28.16,0,0,.02,0,.03.02.02,0,.03.02.05.03,0,0,0,0,0,0,.09.05.18.11.26.15.03.02.05.03.07.05.07.05.14.08.21.13.02,0,.05.03.06.04,0,0,.02,0,.04.02,0,0,.02,0,.03.02.09.05.18.11.27.16.02,0,.04.02.05.04h0c.08.05.16.1.23.14,0,0,.02,0,.03.02,0,0,0,0,.02,0,0,0,.02,0,.04.02.09.05.17.11.26.16.02,0,.03.02.05.03h0c.08.05.17.11.25.15.02,0,.03.02.05.03.08.05.17.11.25.15,0,0,.03.02.04.02.08.05.16.11.24.15,0,0,.02,0,.03.02h0c.08.05.15.1.23.15h0s.02,0,.02.02c.08.05.15.1.23.14h0s.02,0,.02.02c.07.05.14.09.21.14,0,0,.02,0,.02.02h0s0,0,0,0c.07.05.14.09.21.14h0s0,0,.02,0h0c.06.05.14.09.2.14h0c.06.05.13.09.18.14h0s0,0,.02,0c.05.04.11.08.16.12h0s0,0,0,0h0c.05.04.1.07.15.11h0c.06-.09.14-.18.21-.28-3.98-3.08-7.55-4.84-10.64-6.36v.57c1.07.55,2.15,1.12,3.19,1.7,0,0,0,0,0,0Z" style="fill:#008bff; stroke-width:0px;"/><path d="M24.56,29.28v.56l-2.04.08c3.83,1.31,7.34,1.49,9.94.76-2.08.02-4.8-.27-7.9-1.4Z" style="fill:#008bff; stroke-width:0px;"/><path d="M67.47,17.2c1.67,0,3.03-1.35,3.03-3.03s-1.35-2.57-3.03-2.57-3.03.9-3.03,2.57,1.35,3.03,3.03,3.03Z" style="fill:#008bff; stroke-width:0px;"/><path d="M38.12,17.31c-1.91-1.91-5.29-1.8-5.29-1.8,0,0-3.38-.12-5.29,1.8-.2.2-.39.41-.56.63-4.01-3.1-7.61-4.88-10.71-6.41v-2.17l-6.08,2.85v6.62s0,0,0,.02v.02h0c1.37,1.54,3.19,3.29,5.6,5.27l.47.38v-3.12c0-.72.18-1.91,1.14-1.91s1.11.72,1.11,1.57v5.11c1.89,1.28,3.92,2.32,6.06,3.1v-9.85c0-1.96-1.41-3.93-4.26-3.93-1.66,0-3.2.86-4.04,2.3v-5.7s0,0,0,0v-.57c3.09,1.53,6.66,3.29,10.64,6.36-.07.1-.14.19-.21.29,0,0,0,0,0,0,.02,0,.04.03.05.04-1.07,1.53-.97,2.95-.97,4.58,0,1.96-.14,3.6,1.76,5.51,1.91,1.91,5.29,1.8,5.29,1.8,0,0,3.39.12,5.29-1.8,1.91-1.91,1.75-3.55,1.75-5.51.02-1.94.17-3.59-1.74-5.49ZM33.96,24.86c0,.38-.19,1.31-1.12,1.31s-1.12-.93-1.12-1.31v-4.24c0-.91.77-1.15,1.12-1.15s1.12.22,1.12,1.15v4.24Z" style="stroke-width:0px;"/><polygon points="56.69 29.84 62.76 29.84 62.76 9.35 56.69 12.22 56.69 29.84" style="stroke-width:0px;"/><rect x="64.42" y="18.24" width="6.07" height="11.6" style="stroke-width:0px;"/><path d="M18.52,29.84l4.02.08c-1.38-.49-2.73-1.07-4.02-1.76v1.68Z" style="stroke-width:0px;"/><path d="M53.48,17.31c-1.91-1.91-5.29-1.8-5.29-1.8,0,0-3.38-.12-5.29,1.8-1.91,1.91-1.76,3.56-1.76,5.51s-.14,3.6,1.76,5.51c1.91,1.91,5.29,1.8,5.29,1.8,0,0,3.39.12,5.29-1.8,1.91-1.91,1.76-3.55,1.76-5.51,0-1.97.14-3.62-1.76-5.51ZM49.3,24.86c0,.38-.19,1.31-1.12,1.31s-1.12-.93-1.12-1.31v-4.24c0-.91.77-1.15,1.12-1.15s1.12.22,1.12,1.15v4.24Z" style="stroke-width:0px;"/><path d="M10.19,22.12v7.72h6.07v-3c-.69-.44-1.36-.91-2.04-1.43-1.55-1.17-2.87-2.27-4.03-3.29h0s0,0,0,0Z" style="stroke-width:0px;"/><path d="M10.2,18.85s0,0,0-.02v.02c-5.11-5.72-4.08-7.98-3.69-8.3,1.42-1.19,3.93-.84,6.75.22l.67-.3c-5.69-2.29-9.35-1.9-10.22.02,0,0-2.14,3.11,4.93,10.16.48.47.99.96,1.55,1.46h0s0,.02,0,.02h0v-3.26h0s0-.02,0-.02Z" style="fill:#008bff; stroke-width:0px;"/></g></g></svg>